 <svg version="1.0" xmlns="http://www.w3.org/2000/svg"  viewBox="0 0 700.000000 700.000000" preserveAspectRatio="xMidYMid meet">
<metadata> 
width="700.000000pt" height="700.000000pt"
Created by potrace 1.12, written by Peter Selinger 2001-2015
</metadata>
<g transform="translate(0.000000,700.000000) scale(0.100000,-0.100000)" fill="var(--black)" stroke="none">
<path d="M0 3500 l0 -2920 583 2 582 3 0 290 0 290 -286 3 -286 2 -7 77 c-8
99 -8 4407 0 4506 l7 77 286 2 286 3 0 290 0 290 -582 3 -583 2 0 -2920z"></path>
<path d="M5835 6407 c-3 -7 -4 -138 -3 -292 l3 -280 286 -3 286 -2 7 -77 c8
-99 8 -4407 0 -4506 l-7 -77 -286 -2 -286 -3 0 -290 0 -290 583 -3 582 -2 0
2920 0 2920 -580 0 c-459 0 -582 -3 -585 -13z"></path>
<path d="M1462 4959 l3 -290 285 0 285 0 3 290 2 291 -290 0 -290 0 2 -291z"></path>
<path d="M3212 4959 l3 -290 285 0 285 0 3 290 2 291 -290 0 -290 0 2 -291z"></path>
<path d="M4962 4959 l3 -290 285 0 285 0 3 290 2 291 -290 0 -290 0 2 -291z"></path>
<path d="M1460 3500 l0 -290 290 0 290 0 0 290 0 290 -290 0 -290 0 0 -290z"></path>
<path d="M3210 3500 l0 -290 290 0 290 0 0 290 0 290 -290 0 -290 0 0 -290z"></path>
<path d="M4960 3500 l0 -290 290 0 290 0 0 290 0 290 -290 0 -290 0 0 -290z"></path>
<path d="M1464 2331 c-2 -2 -4 -134 -4 -293 l0 -288 290 0 290 0 -2 291 -3
290 -283 2 c-156 1 -286 0 -288 -2z"></path>
<path d="M3214 2331 c-2 -2 -4 -134 -4 -293 l0 -288 290 0 290 0 -2 291 -3
290 -283 2 c-156 1 -286 0 -288 -2z"></path>
<path d="M4964 2331 c-2 -2 -4 -134 -4 -293 l0 -288 290 0 290 0 -2 291 -3
290 -283 2 c-156 1 -286 0 -288 -2z"></path>
</g>
</svg>