<?xml version="1.0" standalone="no"?>
<!DOCTYPE svg PUBLIC "-//W3C//DTD SVG 20010904//EN"
 "http://www.w3.org/TR/2001/REC-SVG-20010904/DTD/svg10.dtd">
<svg version="1.0" xmlns="http://www.w3.org/2000/svg"
 width="512.000000pt" height="512.000000pt" viewBox="0 0 512.000000 512.000000"
 preserveAspectRatio="xMidYMid meet">

<g transform="translate(0.000000,512.000000) scale(0.100000,-0.100000)" stroke="none">
<path d="M580 2560 l0 -2560 1980 0 1980 0 -1 2063 0 2062 -471 498 -471 497
-1509 0 -1508 0 0 -2560z m2900 1925 l0 -475 450 0 450 0 0 -1925 0 -1925
-1820 0 -1820 0 0 2400 0 2400 1370 0 1370 0 0 -475z m480 20 c145 -154 275
-292 289 -307 l25 -28 -317 0 -317 0 0 337 0 338 29 -30 c15 -17 147 -156 291
-310z"/>
<path d="M1557 3358 l-397 -341 2 -1271 3 -1271 1343 -3 1342 -2 0 1615 0
1615 -947 0 -948 -1 -398 -341z m2133 -1273 l0 -1455 -1185 0 -1185 0 0 1135
0 1135 370 0 370 0 0 320 0 320 815 0 815 0 0 -1455z m-1793 978 c-2 -2 -102
-2 -221 -1 l-217 3 218 187 218 186 3 -185 c1 -102 1 -188 -1 -190z"/>
<path d="M2880 3130 l0 -80 260 0 260 0 0 80 0 80 -260 0 -260 0 0 -80z"/>
<path d="M2560 2810 l0 -80 420 0 420 0 0 80 0 80 -420 0 -420 0 0 -80z"/>
<path d="M1970 2135 c-229 -229 -263 -267 -250 -278 8 -8 119 -105 245 -217
127 -112 240 -213 253 -224 l23 -21 50 52 c27 28 49 56 49 62 0 5 -65 67 -144
138 l-145 128 675 3 674 2 0 80 0 80 -695 0 c-382 0 -695 3 -695 8 0 4 76 84
170 177 l170 170 -52 52 c-29 29 -55 53 -58 53 -3 0 -124 -119 -270 -265z"/>
</g>
</svg>
